<svg xmlns="http://www.w3.org/2000/svg" xmlns:xlink="http://www.w3.org/1999/xlink" id="eas3t6miw981" shape-rendering="geometricPrecision" text-rendering="geometricPrecision" viewBox="0 0 725.856 493.826"><path fill="#f2f2f2" d="M246.72509,241.01744h188.54982c5.328719.005996,9.647004,4.324281,9.653,9.653v279.58942c-.00599,5.328721-4.324279,9.64701-9.653,9.653h-188.54982c-5.328721-.00599-9.64701-4.324279-9.653-9.653v-279.58947c.006023-5.3287,4.3243-9.646954,9.653-9.65295Z" transform="translate(-237.072-203.087)"/><path fill="#fff" d="M249.0652,248.03777h183.8696c2.745093.003064,4.969666,2.227637,4.97273,4.97273v274.90926c-.003064,2.745093-2.227637,4.969666-4.97273,4.97273h-183.8696c-2.745093-.003064-4.969666-2.227637-4.97273-4.97273v-274.90926c.003064-2.745093,2.227637-4.969666,4.97273-4.97273Z" transform="translate(-237.072-203.087)"/><path fill="#2f2e41" d="M376.84252,350.71712c0,17.67311-16.34161,15-36.5,15s-36.5,2.67311-36.5-15s7.98246-49,36.5-49c29.5,0,36.5,31.32688,36.5,49Z" transform="translate(-237.072-203.087)"/><path fill="#a0616a" d="M419.7806,500.31525c1.480258-2.813604,1.638242-6.138359.431441-9.079646s-3.654422-5.196969-6.684261-6.160094l-41.81616-88.45906-19.12793,13.413l47.1186,82.73471c-1.309265,5.313831,1.562795,10.767114,6.685273,12.693562s10.876261-.282848,13.393037-5.142562Z" transform="translate(-237.072-203.087)"/><path fill="#ccc" d="M383.3937,404.38708l-2.39014-3.74-1.21972-1.92-9.39014-14.72c-3.010394-6.727788-10.896343-9.752067-17.633386-6.762441s-9.785633,10.866208-6.816804,17.612441l2.15039,7.67l4.38964,15.68c.266404.965117.834006,1.819962,1.62012,2.44.29769.249261.627255.457761.98.62c1.242528.587169,2.677339.612661,3.93994.07.02-.01.0503-.02.07032-.03l11.35986-5.08.02-.01l8.66992-3.88l2.16016-.96c.619427-.275376,1.172065-.681298,1.62011-1.19.474611-.524515.823304-1.150395,1.01954-1.83.41049-1.339714.209324-2.792268-.54981-3.97Z" transform="translate(-237.072-203.087)"/><path fill="#2f2e41" d="M323.46353,529.80712c-.863789-1.433455-2.409142-2.316437-4.082659-2.332745s-3.235783.836394-4.127341,2.252745c-.189476.285688-.340665.594992-.4497.92l-.57032,1.57h10.68018Z" transform="translate(-237.072-203.087)"/><circle r="24.561" fill="#a0616a" transform="translate(103.041 137.054)"/><path fill="#3f3d56" d="M383.16372,412.7871c-.06006-.88-.14014-1.75-.23975-2.6-.354894-3.230823-.997583-6.423502-1.92041-9.54-.18994-.68-.3999-1.34-.62988-1.99-2.924134-8.617093-8.005316-16.342268-14.75976-22.44-2.674286-2.396355-6.139133-3.721045-9.73-3.72h-34.6001c-4.300592.000438-8.381724,1.899056-11.152318,5.188266s-3.948132,7.633608-3.217802,11.871734c-.01025.01-.01025.01,0,.02.244182,1.397885.692323,2.752335,1.33008,4.02l1.3999,2.79l9.37988,18.76l11.66993,23.34.68017,1.36l43.49024,11.96.17968-.41c.16016-.36.33008-.73.48-1.09.24024-.54.47022-1.08.7002-1.61c3.873312-8.810619,6.226584-18.21356,6.96-27.81v-.01c.16366-2.694399.15696-5.396446-.02006-8.09Z" transform="translate(-237.072-203.087)"/><path fill="#2f2e41" d="M376.22378,448.69708c-.147805-.509028-.381112-.989209-.68994-1.42-1.119869-1.497909-2.458177-2.819289-3.97022-3.92l-.00976-.01c-5.27-4-15.73-8.66-35.93994-8.78h-.03028c-1.891488.001602-3.607707,1.107925-4.39013,2.83l-.5,1.09-3.21973,7.07995c-.274623.605755-.706187,1.127084-1.25,1.51-5.10986,3.62-29.85986,23.92005-15.33008,68.49c1.41992,4.35,2.87988,9.1,4.35986,14.16q.36036,1.23.72022,2.49h43.56006l-.93018-7c-.062005-.457064-.03816-.921685.07031-1.37l17.52979-72.34.08008-.31c.200414-.824073.179696-1.686452-.06006-2.49995Z" transform="translate(-237.072-203.087)"/><path fill="#3f3d56" d="M389.89371,367.71709h19c1.656841.000033,2.999967,1.343159,3,3v5c.551585.001686.998314.448415,1,1v2c-.001691.551583-.448417.998309-1,1v2c.551583.001691.998309.448417,1,1v2c-.001691.551583-.448417.998309-1,1v27c-.000039,1.656838-1.343162,2.999961-3,3h-19c-1.656838-.000039-2.999961-1.343162-3-3v-42c.000044-1.656836,1.343164-2.999956,3-3Z" transform="translate(-237.072-203.087)"/><path fill="#0adc0a" d="M388.89369,412.7171v-42c.000039-1.656838,1.343162-2.999961,3-3h-2c-1.656838.000039-2.999961,1.343162-3,3v42c.000039,1.656838,1.343162,2.999961,3,3h2c-1.656838-.000039-2.999961-1.343162-3-3Z" transform="translate(-237.072-203.087)"/><circle r="4" fill="#fff" transform="translate(161.822 178.63)"/><path fill="#a0616a" d="M393.81854,395.7304c-.324844.447974-.613857.920866-.86435,1.41428l-49.23923,5.915-7.24081-9.62939-15.96072,9.02824L331.6752,420.7512c1.852231,3.035564,5.485865,4.484123,8.91848,3.55538l54.46327-14.73582c3.168904,3.001223,7.864279,3.728459,11.792608,1.826479s6.269887-6.036292,5.88091-10.383474-3.427321-8.00011-7.630914-9.174463-8.69527.374921-11.281014,3.891058Z" transform="translate(-237.072-203.087)"/><path fill="#3f3d56" d="M343.30386,396.89709l-13.8003-17.88c-3.194554-5.715814-10.259309-7.996743-16.193149-5.228123s-8.724592,9.647944-6.396691,15.768123c-.01025.01-.01025.01,0,.02.20573.544845.453042,1.073068.73975,1.58l1.99023,5.23l6.04981,15.95c.462808,1.224928,1.438568,2.185922,2.67041,2.63.214408.078523.435084.138738.65966.18c1.047873.213968,2.137752.043581,3.07032-.48l4.37988-2.45l15.46-8.64c1.137847-.6455,1.942967-1.749351,2.21-3.03.262649-1.280901-.043825-2.612732-.83992-3.65Z" transform="translate(-237.072-203.087)"/><path fill="#2f2e41" d="M311.84252,344.71706v0h9.71436l4.28564-14.76922.85693,14.76922h4.64307l2.5-8.61538.5,8.61538h34.5v0c0-17.67308-11.64059-31.99994-26-31.99994h-5.00006c-14.35936,0-25.99994,14.32688-25.99994,31.99994Z" transform="translate(-237.072-203.087)"/><path fill="#ccc" d="M596.71993,325.9429h-203.58947c-5.328721-.00599-9.64701-4.324279-9.653-9.653v-103.54976c.00599-5.328721,4.324279-9.64701,9.653-9.653h203.58947c5.328724.005985,9.647015,4.324276,9.653,9.653v103.54981c-.006012,5.328704-4.324296,9.646965-9.653,9.65295Z" transform="translate(-237.072-203.087)"/><path fill="#fff" d="M594.37983,318.92258h-198.90926c-2.745093-.003064-4.969666-2.227637-4.97273-4.97273v-98.86961c.003064-2.745093,2.227637-4.969666,4.97273-4.97273h198.90926c2.745093.003064,4.969666,2.227637,4.97273,4.97273v98.86961c-.00307,2.74509-2.22764,4.96966-4.97273,4.97273Z" transform="translate(-237.072-203.087)"/><path fill="#ccc" d="M405.33688,344.97693c-.493757-.001332-.982391-.100155-1.43786-.2908-1.391596-.559283-2.297509-1.915064-2.28169-3.41476v-19.03166l28.68-.725-22.37044,22.37015c-.682653.695594-1.615405,1.088886-2.59001,1.09207Z" transform="translate(-237.072-203.087)"/><path fill="#ccc" d="M570.16142,260.08131h-100.62469c-1.673709.002447-3.221328-.889062-4.05889-2.33813s-.837562-3.235101,0-4.68417s2.385181-2.340577,4.05889-2.33813h100.62469c2.584811,0,4.680215,2.095404,4.680215,4.680215s-2.095404,4.680215-4.680215,4.680215Z" transform="translate(-237.072-203.087)"/><path fill="#ccc" d="M537.39989,240.19039h-67.86316c-2.584814,0-4.68022-2.095406-4.68022-4.68022s2.095406-4.68022,4.68022-4.68022h67.86316c2.584814,0,4.68022,2.095406,4.68022,4.68022s-2.095406,4.68022-4.68022,4.68022Z" transform="translate(-237.072-203.087)"/><circle r="14.626" fill="#0adc0a" transform="translate(190.81 42.3685)"/><g id="eas3t6miw9823" transform="translate(7.60833 3.055275)"><circle r="4.68" fill="#e6e6e6" transform="translate(302.08 90.4327)"/><circle r="4.68" fill="#e6e6e6" transform="translate(319.443717 90.4327)"/><circle r="4.68" fill="#e6e6e6" transform="translate(334.841 90.4327)"/></g><path fill="#f2f2f2" d="M764.72509,398.01744h188.54982c5.3287.005996,9.646977,4.32425,9.653,9.65295v279.58947c-.00599,5.328721-4.324279,9.64701-9.653,9.653h-188.54982c-5.328721-.00599-9.64701-4.324279-9.653-9.653v-279.58947c.006023-5.3287,4.3243-9.646954,9.653-9.65295Z" transform="translate(-237.072-203.087)"/><path fill="#fff" d="M767.0652,405.03777h183.8696c2.745093.003064,4.969666,2.227637,4.97273,4.97273v274.90926c-.003064,2.745093-2.227637,4.969666-4.97273,4.97273h-183.8696c-2.745093-.003064-4.969666-2.227637-4.97273-4.97273v-274.90926c.003064-2.745093,2.227637-4.969666,4.97273-4.97273Z" transform="translate(-237.072-203.087)"/><g id="eas3t6miw9829" transform="translate(200.568684 0.175394)"><g id="eas3t6miw9830" transform="matrix(.159996 0.001127-.001198 0.169996 467.036535 349.096189)"><path fill="#ccc" d="M772.64477,539.57281h-203.58948c-5.328721-.00599-9.64701-4.324279-9.653-9.653v-103.54976c.006018-5.328702,4.324298-9.64696,9.653-9.65295h203.58948c5.328702.00599,9.646982,4.324248,9.653,9.65295v103.54981c-.006018,5.328702-4.324298,9.64696-9.653,9.65295Z" transform="translate(-237.072-203.087)"/><path fill="#fff" d="M770.30466,532.55249h-198.90926c-2.745093-.003064-4.969666-2.227637-4.97273-4.97273v-98.86961c.003064-2.745093,2.227637-4.969666,4.97273-4.97273h198.90926c2.745093.003064,4.969666,2.227637,4.97273,4.97273v98.86961c-.003064,2.745093-2.227637,4.969666-4.97273,4.97273Z" transform="translate(-237.072-203.087)"/><path id="eas3t6miw9833" fill="#ccc" d="M713.32473,453.8203h-67.86316c-1.672082,0-3.217149-.892045-4.05319-2.34011s-.83604-3.232155,0-4.68022s2.381108-2.34011,4.05319-2.34011h67.86316c2.584814,0,4.68022,2.095406,4.68022,4.68022s-2.095406,4.68022-4.68022,4.68022Z" transform="matrix(.1 0 0 0.1-240.928772-269.45166)"/><path fill="#ccc" d="M758.78529,557.51477l-22.37043-22.37015l28.68.725v19.03166c.015821,1.499697-.890092,2.85548-2.28169,3.41476-.455469.190645-.944103.289468-1.43786.2908-.974608-.003182-1.907364-.396474-2.59002-1.09207Z" transform="translate(-237.072-203.087)"/><path id="eas3t6miw9835" fill="#ccc" d="M746.08625,473.71122h-100.62468c-1.673709.002447-3.221328-.889062-4.05889-2.33813s-.837562-3.235101,0-4.68417s2.385181-2.340577,4.05889-2.33813h100.62468c1.673709-.002447,3.221328.889062,4.05889,2.33813s.837562,3.235101,0,4.68417-2.385181,2.340577-4.05889,2.33813Z" transform="matrix(.1 0 0 0.1-96.02877-201.500711)"/><circle r="14.626" fill="#0adc0a" transform="translate(366.735 255.998)"/><circle r="4.68" fill="#e6e6e6" transform="translate(478.005 304.063)"/><circle r="4.68" fill="#e6e6e6" transform="translate(494.385 304.063)"/><circle r="4.68" fill="#e6e6e6" transform="translate(510.766 304.063)"/></g><path fill="#ffb8b8" d="M774.88126,602.2472c1.640278-2.483097,4.296166-4.112118,7.253018-4.448727s5.910934.653769,8.067362,2.704647L821.95606,584.113l-1.974,18.46448L790.13014,615.311c-3.768193,3.4705-9.536587,3.574116-13.426988.241185s-4.673108-9.048915-1.821892-13.304995Z" transform="translate(-237.072-203.087)"/><path fill="#3f3d56" d="M873.75356,520.1571c-5.058602-3.958556-12.118724-4.117256-17.35009-.39-1.149015.824884-2.17576,1.807927-3.04981,2.92l-27.87988,51.71-25.73,19.44c-.852726.642412-1.448455,1.567821-1.68018,2.61-.174926.76439-.143921,1.561506.08985,2.31l2.53027,8.16c.27067.876607.800623,1.650616,1.52,2.22.280638.210409.582195.391363.8999.54.038162.020863.078426.037623.12012.05c1.133922.486792,2.418638.483172,3.5498-.01l30.16016-13.08.33008-.15c10.165567-4.498439,18.374862-12.50194,23.12988-22.55005l15.85986-33.47c4.893329-6.305623,3.776456-15.379216-2.49996-20.30995Z" transform="translate(-237.072-203.087)"/><circle r="24.561" fill="#ffb8b8" transform="translate(639.877 273.454)"/><path fill="#2f2e41" d="M893.57388,640.7871l-.25-1.91-1.16016-8.71-1.27-9.51-4.50976.77-1.74024.29-1.75976.3-.58008.1-44.74024,7.6-5.56982-3.35-.12012-.07.05029.51l1.04981,10.89l5.00976,52.02h62.12012Z" transform="translate(-237.072-203.087)"/><path fill="#3f3d56" d="M910.77358,540.85711c-.796488-8.908588-5.006699-17.164183-11.75-23.04-6.489924-5.747492-14.996595-8.682576-23.6499-8.16-8.25.55-14.58984,3.94-18.97021,10.11-2.253171,3.30238-3.917718,6.96985-4.91993,10.84-4.98,17.92-10.23,44.17-14.21972,65.88-2.24024,12.12-4.08008,22.82995-5.27,29.88-.02.15-.04.29-.06983.44-.46044,2.75-.81005,4.9-1.04,6.33-.298236,1.803918.528681,3.608239,2.08984,4.56.00976.01.02978.02.04.03c5.047345,3.0195,10.808578,4.63845,16.68994,4.69c7.12012,0,15.66016-2.48,24.6499-10.49c1.260263-1.144216,3.15823-1.22417,4.51026-.19l.98.76l9.67968,7.53c.755874.590736,1.68117.923685,2.64014.95.477626.021336.955214-.043012,1.41016-.19.040919-.005256.081073-.015326.11963-.03c1.41703-.461096,2.511805-1.596952,2.92041-3.03.53955-1.88,1.13964-4.05,1.7998-6.47.27-1.00994.54981-2.07.83984-3.17c1.27-4.86,2.68018-10.5,4.06006-16.64c4.82029-21.45999,9.39988-49.03,7.45993-70.59Z" transform="translate(-237.072-203.087)"/><path fill="#ffb8b8" d="M870.3269,643.35286c-.241694-2.966118.842831-5.886948,2.961751-7.976554s5.054575-3.133336,8.017039-2.850346l14.87184-32.49319l9.84155,15.74731-15.63137,28.44185c-.823352,5.056253-5.298368,8.697583-10.416419,8.47586s-9.261395-4.236416-9.644391-9.34493Z" transform="translate(-237.072-203.087)"/><path fill="#3f3d56" d="M920.1437,568.30712l-8.18017-36.13c-.041839-7.377768-5.606339-13.552926-12.93995-14.36-.50976-.05-1.02978-.07995-1.56005-.07995-3.857235.010003-7.552146,1.553577-10.270213,4.290449s-4.236129,6.442339-4.219537,10.299551l9.98,57.89-.02979.12-5.29,19.97-2.93018,11.09c-.030544.10442-.050662.211611-.06006.32-.187351.930281-.064364,1.896336.3501,2.75.332411.716423.850286,1.330967,1.5,1.78l5.66992,3.92l1.3501.94c.750986.523167,1.644813.802482,2.56006.8.353334-.000378.705496-.040632,1.0498-.12.04-.01.06983-.02.10986-.03.415634-.108331.813222-.276775,1.18018-.5.681262-.412918,1.240421-.999629,1.62012-1.69995l15.65967-28.91c5.349036-9.885999,6.930218-21.37678,4.45014-32.3401Z" transform="translate(-237.072-203.087)"/><polygon points="647.893 353.651 656.893 391.651 643.893 423.651 652.893 392.651 647.893 353.651" opacity=".2"/><path fill="#2f2e41" d="M896.82726,491.30225c2.058245-.733812,3.950668-1.868228,5.56792-3.3377.71476-.63818,1.483-1.231,2.19616-1.86881c6.298-5.63286,8.19023-15.31969,5.38028-23.28825s-9.79872-14.09376-17.78456-16.85421-16.83725-2.38366-24.94582-.00778c-8.73428,2.5592-17.48157,8.322-19.55612,17.18386-.55221,2.3589-.57321,4.97583,1.03307,6.96573.483042.601109,1.115466,1.064833,1.834,1.34478c2.83043,1.085,4.40754-1.12983,6.5201-2.07055c2.90369-1.293,6.47739.10319,8.4986,2.55635s2.76949,5.71154,3.07979,8.87493c.062847,1.950298.368784,3.885135.91072,5.75968.573505,1.903178,2.090734,3.374241,4.01072,3.88868c2.27844.42089,4.46958-1.14791,5.903-2.96825s2.44959-3.98248,4.14351-5.56331s4.45662-2.41517,6.3133-1.02912c.621837.524635,1.146504,1.154601,1.55,1.86108c2.84585,4.37141,2.49942,4.18148,5.34527,8.55289Z" transform="translate(-235.399389-203.087)"/><path fill="#3f3d56" d="M779.20559,581.2194l-17.32712,7.7956c-1.510951.679818-2.184751,2.45576-1.505,3.96674l2.05146,4.55977c-.50232.227853-.726424.81853-.50166,1.32224l.82059,1.82391c.227853.502326.818538.726431,1.32225.50166l.82058,1.82391c-.50233.227849-.726437.818538-.50166,1.32225l.82058,1.8239c.227849.50233.818535.726439,1.32225.50167l11.07789,24.62276c.679818,1.510951,2.45576,2.184751,3.96674,1.505l17.32713-7.79555c1.510951-.679818,2.184751-2.45576,1.505-3.96674l-17.23228-38.30207c-.679799-1.510976-2.455753-2.184802-3.96675-1.50505Z" transform="translate(-237.072-203.087)"/><path fill="#0adc0a" d="M797.19351,618.76708l-2.43995-5.43-6.3999-14.22-5.62012-12.49c-.649808-1.44871-2.35007-2.097528-3.7998-1.45l-9.54,4.29-4.37012,1.97c-1.442977.655489-2.086173,2.352904-1.43994,3.80005l5.81006,12.92l2.23,4.95l6.41992,14.28c.658736,1.445218,2.360106,2.088246,3.81006,1.44l13.8999-6.26c1.444569-.653996,2.088338-2.352982,1.43989-3.80005Z" transform="translate(-237.072-203.087)"/></g><script><![CDATA[
!function(t,n){"object"==typeof exports&&"undefined"!=typeof module?module.exports=n():"function"==typeof __SVGATOR_DEFINE__&&__SVGATOR_DEFINE__.amd?__SVGATOR_DEFINE__(n):((t="undefined"!=typeof globalThis?globalThis:t||self).__SVGATOR_PLAYER__=t.__SVGATOR_PLAYER__||{},t.__SVGATOR_PLAYER__["5c7f360c"]=n())}(this,(function(){"use strict";function t(t,n){var e=Object.keys(t);if(Object.getOwnPropertySymbols){var r=Object.getOwnPropertySymbols(t);n&&(r=r.filter((function(n){return Object.getOwnPropertyDescriptor(t,n).enumerable}))),e.push.apply(e,r)}return e}function n(n){for(var e=1;e<arguments.length;e++){var r=null!=arguments[e]?arguments[e]:{};e%2?t(Object(r),!0).forEach((function(t){o(n,t,r[t])})):Object.getOwnPropertyDescriptors?Object.defineProperties(n,Object.getOwnPropertyDescriptors(r)):t(Object(r)).forEach((function(t){Object.defineProperty(n,t,Object.getOwnPropertyDescriptor(r,t))}))}return n}function e(t){return(e="function"==typeof Symbol&&"symbol"==typeof Symbol.iterator?function(t){return typeof t}:function(t){return t&&"function"==typeof Symbol&&t.constructor===Symbol&&t!==Symbol.prototype?"symbol":typeof t})(t)}function r(t,n){if(!(t instanceof n))throw new TypeError("Cannot call a class as a function")}function i(t,n){for(var e=0;e<n.length;e++){var r=n[e];r.enumerable=r.enumerable||!1,r.configurable=!0,"value"in r&&(r.writable=!0),Object.defineProperty(t,r.key,r)}}function u(t,n,e){return n&&i(t.prototype,n),e&&i(t,e),t}function o(t,n,e){return n in t?Object.defineProperty(t,n,{value:e,enumerable:!0,configurable:!0,writable:!0}):t[n]=e,t}function a(t){return(a=Object.setPrototypeOf?Object.getPrototypeOf:function(t){return t.__proto__||Object.getPrototypeOf(t)})(t)}function l(t,n){return(l=Object.setPrototypeOf||function(t,n){return t.__proto__=n,t})(t,n)}function s(){if("undefined"==typeof Reflect||!Reflect.construct)return!1;if(Reflect.construct.sham)return!1;if("function"==typeof Proxy)return!0;try{return Boolean.prototype.valueOf.call(Reflect.construct(Boolean,[],(function(){}))),!0}catch(t){return!1}}function f(t,n,e){return(f=s()?Reflect.construct:function(t,n,e){var r=[null];r.push.apply(r,n);var i=new(Function.bind.apply(t,r));return e&&l(i,e.prototype),i}).apply(null,arguments)}function c(t,n){if(n&&("object"==typeof n||"function"==typeof n))return n;if(void 0!==n)throw new TypeError("Derived constructors may only return object or undefined");return function(t){if(void 0===t)throw new ReferenceError("this hasn't been initialised - super() hasn't been called");return t}(t)}function h(t,n,e){return(h="undefined"!=typeof Reflect&&Reflect.get?Reflect.get:function(t,n,e){var r=function(t,n){for(;!Object.prototype.hasOwnProperty.call(t,n)&&null!==(t=a(t)););return t}(t,n);if(r){var i=Object.getOwnPropertyDescriptor(r,n);return i.get?i.get.call(e):i.value}})(t,n,e||t)}function v(t){return function(t){if(Array.isArray(t))return y(t)}(t)||function(t){if("undefined"!=typeof Symbol&&null!=t[Symbol.iterator]||null!=t["@@iterator"])return Array.from(t)}(t)||function(t,n){if(!t)return;if("string"==typeof t)return y(t,n);var e=Object.prototype.toString.call(t).slice(8,-1);"Object"===e&&t.constructor&&(e=t.constructor.name);if("Map"===e||"Set"===e)return Array.from(t);if("Arguments"===e||/^(?:Ui|I)nt(?:8|16|32)(?:Clamped)?Array$/.test(e))return y(t,n)}(t)||function(){throw new TypeError("Invalid attempt to spread non-iterable instance.\nIn order to be iterable, non-array objects must have a [Symbol.iterator]() method.")}()}function y(t,n){(null==n||n>t.length)&&(n=t.length);for(var e=0,r=new Array(n);e<n;e++)r[e]=t[e];return r}Number.isInteger||(Number.isInteger=function(t){return"number"==typeof t&&isFinite(t)&&Math.floor(t)===t}),Number.EPSILON||(Number.EPSILON=2220446049250313e-31);var g=d(Math.pow(10,-6));function d(t){var n=arguments.length>1&&void 0!==arguments[1]?arguments[1]:6;if(Number.isInteger(t))return t;var e=Math.pow(10,n);return Math.round((+t+Number.EPSILON)*e)/e}function p(t,n){var e=arguments.length>2&&void 0!==arguments[2]?arguments[2]:g;return Math.abs(t-n)<e}var m=Math.PI/180;function b(t){return t}function w(t,n,e){var r=1-e;return 3*e*r*(t*r+n*e)+e*e*e}function A(){var t=arguments.length>0&&void 0!==arguments[0]?arguments[0]:0,n=arguments.length>1&&void 0!==arguments[1]?arguments[1]:0,e=arguments.length>2&&void 0!==arguments[2]?arguments[2]:1,r=arguments.length>3&&void 0!==arguments[3]?arguments[3]:1;return t<0||t>1||e<0||e>1?null:p(t,n)&&p(e,r)?b:function(i){if(i<=0)return t>0?i*n/t:0===n&&e>0?i*r/e:0;if(i>=1)return e<1?1+(i-1)*(r-1)/(e-1):1===e&&t<1?1+(i-1)*(n-1)/(t-1):1;for(var u,o=0,a=1;o<a;){var l=w(t,e,u=(o+a)/2);if(p(i,l))break;l<i?o=u:a=u}return w(n,r,u)}}function _(){return 1}function x(t){return 1===t?1:0}function k(){var t=arguments.length>0&&void 0!==arguments[0]?arguments[0]:1,n=arguments.length>1&&void 0!==arguments[1]?arguments[1]:0;if(1===t){if(0===n)return x;if(1===n)return _}var e=1/t;return function(t){return t>=1?1:(t+=n*e)-t%e}}var S=Math.sin,O=Math.cos,j=Math.acos,E=Math.asin,M=Math.tan,P=Math.atan2,I=Math.PI/180,R=180/Math.PI,F=Math.sqrt,N=function(){function t(){var n=arguments.length>0&&void 0!==arguments[0]?arguments[0]:1,e=arguments.length>1&&void 0!==arguments[1]?arguments[1]:0,i=arguments.length>2&&void 0!==arguments[2]?arguments[2]:0,u=arguments.length>3&&void 0!==arguments[3]?arguments[3]:1,o=arguments.length>4&&void 0!==arguments[4]?arguments[4]:0,a=arguments.length>5&&void 0!==arguments[5]?arguments[5]:0;r(this,t),this.m=[n,e,i,u,o,a],this.i=null,this.w=null,this.s=null}return u(t,[{key:"determinant",get:function(){var t=this.m;return t[0]*t[3]-t[1]*t[2]}},{key:"isIdentity",get:function(){if(null===this.i){var t=this.m;this.i=1===t[0]&&0===t[1]&&0===t[2]&&1===t[3]&&0===t[4]&&0===t[5]}return this.i}},{key:"point",value:function(t,n){var e=this.m;return{x:e[0]*t+e[2]*n+e[4],y:e[1]*t+e[3]*n+e[5]}}},{key:"translateSelf",value:function(){var t=arguments.length>0&&void 0!==arguments[0]?arguments[0]:0,n=arguments.length>1&&void 0!==arguments[1]?arguments[1]:0;if(!t&&!n)return this;var e=this.m;return e[4]+=e[0]*t+e[2]*n,e[5]+=e[1]*t+e[3]*n,this.w=this.s=this.i=null,this}},{key:"rotateSelf",value:function(){var t=arguments.length>0&&void 0!==arguments[0]?arguments[0]:0;if(t%=360){var n=S(t*=I),e=O(t),r=this.m,i=r[0],u=r[1];r[0]=i*e+r[2]*n,r[1]=u*e+r[3]*n,r[2]=r[2]*e-i*n,r[3]=r[3]*e-u*n,this.w=this.s=this.i=null}return this}},{key:"scaleSelf",value:function(){var t=arguments.length>0&&void 0!==arguments[0]?arguments[0]:1,n=arguments.length>1&&void 0!==arguments[1]?arguments[1]:1;if(1!==t||1!==n){var e=this.m;e[0]*=t,e[1]*=t,e[2]*=n,e[3]*=n,this.w=this.s=this.i=null}return this}},{key:"skewSelf",value:function(t,n){if(n%=360,(t%=360)||n){var e=this.m,r=e[0],i=e[1],u=e[2],o=e[3];t&&(t=M(t*I),e[2]+=r*t,e[3]+=i*t),n&&(n=M(n*I),e[0]+=u*n,e[1]+=o*n),this.w=this.s=this.i=null}return this}},{key:"resetSelf",value:function(){var t=arguments.length>0&&void 0!==arguments[0]?arguments[0]:1,n=arguments.length>1&&void 0!==arguments[1]?arguments[1]:0,e=arguments.length>2&&void 0!==arguments[2]?arguments[2]:0,r=arguments.length>3&&void 0!==arguments[3]?arguments[3]:1,i=arguments.length>4&&void 0!==arguments[4]?arguments[4]:0,u=arguments.length>5&&void 0!==arguments[5]?arguments[5]:0,o=this.m;return o[0]=t,o[1]=n,o[2]=e,o[3]=r,o[4]=i,o[5]=u,this.w=this.s=this.i=null,this}},{key:"recomposeSelf",value:function(){var t=arguments.length>0&&void 0!==arguments[0]?arguments[0]:null,n=arguments.length>1&&void 0!==arguments[1]?arguments[1]:null,e=arguments.length>2&&void 0!==arguments[2]?arguments[2]:null,r=arguments.length>3&&void 0!==arguments[3]?arguments[3]:null,i=arguments.length>4&&void 0!==arguments[4]?arguments[4]:null;return this.isIdentity||this.resetSelf(),t&&(t.x||t.y)&&this.translateSelf(t.x,t.y),n&&this.rotateSelf(n),e&&(e.x&&this.skewSelf(e.x,0),e.y&&this.skewSelf(0,e.y)),!r||1===r.x&&1===r.y||this.scaleSelf(r.x,r.y),i&&(i.x||i.y)&&this.translateSelf(i.x,i.y),this}},{key:"decompose",value:function(){var t=arguments.length>0&&void 0!==arguments[0]?arguments[0]:0,n=arguments.length>1&&void 0!==arguments[1]?arguments[1]:0,e=this.m,r=e[0]*e[0]+e[1]*e[1],i=[[e[0],e[1]],[e[2],e[3]]],u=F(r);if(0===u)return{origin:{x:d(e[4]),y:d(e[5])},translate:{x:d(t),y:d(n)},scale:{x:0,y:0},skew:{x:0,y:0},rotate:0};i[0][0]/=u,i[0][1]/=u;var o=e[0]*e[3]-e[1]*e[2]<0;o&&(u=-u);var a=i[0][0]*i[1][0]+i[0][1]*i[1][1];i[1][0]-=i[0][0]*a,i[1][1]-=i[0][1]*a;var l=F(i[1][0]*i[1][0]+i[1][1]*i[1][1]);if(0===l)return{origin:{x:d(e[4]),y:d(e[5])},translate:{x:d(t),y:d(n)},scale:{x:d(u),y:0},skew:{x:0,y:0},rotate:0};i[1][0]/=l,i[1][1]/=l,a/=l;var s=0;return i[1][1]<0?(s=j(i[1][1])*R,i[0][1]<0&&(s=360-s)):s=E(i[0][1])*R,o&&(s=-s),a=P(a,F(i[0][0]*i[0][0]+i[0][1]*i[0][1]))*R,o&&(a=-a),{origin:{x:d(e[4]),y:d(e[5])},translate:{x:d(t),y:d(n)},scale:{x:d(u),y:d(l)},skew:{x:d(a),y:0},rotate:d(s)}}},{key:"clone",value:function(){var t=this.m;return new this.constructor(t[0],t[1],t[2],t[3],t[4],t[5])}},{key:"toString",value:function(){var t=arguments.length>0&&void 0!==arguments[0]?arguments[0]:" ";if(null===this.s){var n=this.m.map((function(t){return d(t)}));1===n[0]&&0===n[1]&&0===n[2]&&1===n[3]?this.s="translate("+n[4]+t+n[5]+")":this.s="matrix("+n.join(t)+")"}return this.s}}],[{key:"create",value:function(t){return t?Array.isArray(t)?f(this,v(t)):t instanceof this?t.clone():(new this).recomposeSelf(t.origin,t.rotate,t.skew,t.scale,t.translate):new this}}]),t}();function T(t,n,e){return t>=.5?e:n}function B(t,n,e){return 0===t||n===e?n:t*(e-n)+n}function q(t,n,e){var r=B(t,n,e);return r<=0?0:r}function D(t,n,e){var r=B(t,n,e);return r<=0?0:r>=1?1:r}function L(t,n,e){return 0===t?n:1===t?e:{x:B(t,n.x,e.x),y:B(t,n.y,e.y)}}function C(t,n,e){var r=function(t,n,e){return Math.round(B(t,n,e))}(t,n,e);return r<=0?0:r>=255?255:r}function V(t,n,e){return 0===t?n:1===t?e:{r:C(t,n.r,e.r),g:C(t,n.g,e.g),b:C(t,n.b,e.b),a:B(t,null==n.a?1:n.a,null==e.a?1:e.a)}}function G(t,n){for(var e=[],r=0;r<t;r++)e.push(n);return e}function z(t,n){if(--n<=0)return t;var e=(t=Object.assign([],t)).length;do{for(var r=0;r<e;r++)t.push(t[r])}while(--n>0);return t}var Y,$=function(){function t(n){r(this,t),this.list=n,this.length=n.length}return u(t,[{key:"setAttribute",value:function(t,n){for(var e=this.list,r=0;r<this.length;r++)e[r].setAttribute(t,n)}},{key:"removeAttribute",value:function(t){for(var n=this.list,e=0;e<this.length;e++)n[e].removeAttribute(t)}},{key:"style",value:function(t,n){for(var e=this.list,r=0;r<this.length;r++)e[r].style[t]=n}}]),t}(),U=/-./g,Q=function(t,n){return n.toUpperCase()};function H(t){return"function"==typeof t?t:T}function J(t){return t?"function"==typeof t?t:Array.isArray(t)?function(t){var n=arguments.length>1&&void 0!==arguments[1]?arguments[1]:b;if(!Array.isArray(t))return n;switch(t.length){case 1:return k(t[0])||n;case 2:return k(t[0],t[1])||n;case 4:return A(t[0],t[1],t[2],t[3])||n}return n}(t,null):function(t,n){var e=arguments.length>2&&void 0!==arguments[2]?arguments[2]:b;switch(t){case"linear":return b;case"steps":return k(n.steps||1,n.jump||0)||e;case"bezier":case"cubic-bezier":return A(n.x1||0,n.y1||0,n.x2||0,n.y2||0)||e}return e}(t.type,t.value,null):null}function Z(t,n,e){var r=arguments.length>3&&void 0!==arguments[3]&&arguments[3],i=n.length-1;if(t<=n[0].t)return r?[0,0,n[0].v]:n[0].v;if(t>=n[i].t)return r?[i,1,n[i].v]:n[i].v;var u,o=n[0],a=null;for(u=1;u<=i;u++){if(!(t>n[u].t)){a=n[u];break}o=n[u]}return null==a?r?[i,1,n[i].v]:n[i].v:o.t===a.t?r?[u,1,a.v]:a.v:(t=(t-o.t)/(a.t-o.t),o.e&&(t=o.e(t)),r?[u,t,e(t,o.v,a.v)]:e(t,o.v,a.v))}function K(t,n){var e=arguments.length>2&&void 0!==arguments[2]?arguments[2]:null;return t&&t.length?"function"!=typeof n?null:("function"!=typeof e&&(e=null),function(r){var i=Z(r,t,n);return null!=i&&e&&(i=e(i)),i}):null}function W(t,n){return t.t-n.t}function X(t,n,r,i,u){var o,a="@"===r[0],l="#"===r[0],s=Y[r],f=T;switch(a?(o=r.substr(1),r=o.replace(U,Q)):l&&(r=r.substr(1)),e(s)){case"function":if(f=s(i,u,Z,J,r,a,n,t),l)return f;break;case"string":f=K(i,H(s));break;case"object":if((f=K(i,H(s.i),s.f))&&"function"==typeof s.u)return s.u(n,f,r,a,t)}return f?function(t,n,e){if(arguments.length>3&&void 0!==arguments[3]&&arguments[3])return t instanceof $?function(r){return t.style(n,e(r))}:function(r){return t.style[n]=e(r)};if(Array.isArray(n)){var r=n.length;return function(i){var u=e(i);if(null==u)for(var o=0;o<r;o++)t[o].removeAttribute(n);else for(var a=0;a<r;a++)t[a].setAttribute(n,u)}}return function(r){var i=e(r);null==i?t.removeAttribute(n):t.setAttribute(n,i)}}(n,r,f,a):null}function tt(t,n,r,i){if(!i||"object"!==e(i))return null;var u=null,o=null;return Array.isArray(i)?o=function(t){if(!t||!t.length)return null;for(var n=0;n<t.length;n++)t[n].e&&(t[n].e=J(t[n].e));return t.sort(W)}(i):(o=i.keys,u=i.data||null),o?X(t,n,r,o,u):null}function nt(t,n,e){if(!e)return null;var r=[];for(var i in e)if(e.hasOwnProperty(i)){var u=tt(t,n,i,e[i]);u&&r.push(u)}return r.length?r:null}function et(t,n){if(!n.settings.duration||n.settings.duration<0)return null;var e,r,i,u,o,a=function(t,n){if(!n)return null;var e=[];if(Array.isArray(n))for(var r=n.length,i=0;i<r;i++){var u=n[i];if(2===u.length){var o=null;if("string"==typeof u[0])o=t.getElementById(u[0]);else if(Array.isArray(u[0])){o=[];for(var a=0;a<u[0].length;a++)if("string"==typeof u[0][a]){var l=t.getElementById(u[0][a]);l&&o.push(l)}o=o.length?1===o.length?o[0]:new $(o):null}if(o){var s=nt(t,o,u[1]);s&&(e=e.concat(s))}}}else for(var f in n)if(n.hasOwnProperty(f)){var c=t.getElementById(f);if(c){var h=nt(t,c,n[f]);h&&(e=e.concat(h))}}return e.length?e:null}(t,n.elements);return a?(e=a,r=n.settings,i=r.duration,u=e.length,o=null,function(t,n){var a=r.iterations||1/0,l=(r.alternate&&a%2==0)^r.direction>0?i:0,s=t%i,f=1+(t-s)/i;n*=r.direction,r.alternate&&f%2==0&&(n=-n);var c=!1;if(f>a)s=l,c=!0,-1===r.fill&&(s=r.direction>0?0:i);else if(n<0&&(s=i-s),s===o)return!1;o=s;for(var h=0;h<u;h++)e[h](s);return c}):null}function rt(t,n){if(Y=n,!t||!t.root||!Array.isArray(t.animations))return null;var e=function(t){for(var n=document.getElementsByTagName("svg"),e=0;e<n.length;e++)if(n[e].id===t.root&&!n[e].svgatorAnimation)return n[e].svgatorAnimation=!0,n[e];return null}(t);if(!e)return null;var r=t.animations.map((function(t){return et(e,t)})).filter((function(t){return!!t}));return r.length?{svg:e,animations:r,animationSettings:t.animationSettings,options:t.options||void 0}:null}function it(t){var n=arguments.length>1&&void 0!==arguments[1]?arguments[1]:null,e=arguments.length>2&&void 0!==arguments[2]?arguments[2]:Number,r=arguments.length>3&&void 0!==arguments[3]?arguments[3]:"undefined"!=typeof BigInt&&BigInt,i="0x"+(t.replace(/[^0-9a-fA-F]+/g,"")||27);return n&&r&&e.isSafeInteger&&!e.isSafeInteger(+i)?e(r(i))%n+n:+i}function ut(t,n,e){return!t||!e||n>t.length?t:t.substring(0,n)+ut(t.substring(n+1),e,e)}function ot(t){var n=arguments.length>1&&void 0!==arguments[1]?arguments[1]:27;return!t||t%n?t%n:[0,1].includes(n)?n:ot(t/n,n)}function at(t,n,e){if(t&&t.length){var r=it(e),i=ot(r)+5,u=ut(t,ot(r,5),i);return u=u.replace(/\x7c$/g,"==").replace(/\x2f$/g,"="),u=function(t,n,e){var r=+("0x"+t.substring(0,4));t=t.substring(4);for(var i=it(n,r)%r+e%27,u=[],o=0;o<t.length;o+=2)if("|"!==t[o]){var a=+("0x"+t[o]+t[o+1])-i;u.push(a)}else{var l=+("0x"+t.substring(o+1,o+1+4))-i;o+=3,u.push(l)}return String.fromCharCode.apply(String,u)}(u=(u=atob(u)).replace(/[\x41-\x5A]/g,""),n,r),u=JSON.parse(u)}}var lt=[{key:"alternate",def:!1},{key:"fill",def:1},{key:"iterations",def:0},{key:"direction",def:1},{key:"speed",def:1},{key:"fps",def:100}],st=function(){function t(n,e){var i=this,u=arguments.length>2&&void 0!==arguments[2]?arguments[2]:null;r(this,t),this._id=0,this._running=!1,this._rollingBack=!1,this._animations=n,this._settings=e,(!u||u<"2022-05-02")&&delete this._settings.speed,lt.forEach((function(t){i._settings[t.key]=i._settings[t.key]||t.def})),this.duration=e.duration,this.offset=e.offset||0,this.rollbackStartOffset=0}return u(t,[{key:"alternate",get:function(){return this._settings.alternate}},{key:"fill",get:function(){return this._settings.fill}},{key:"iterations",get:function(){return this._settings.iterations}},{key:"direction",get:function(){return this._settings.direction}},{key:"speed",get:function(){return this._settings.speed}},{key:"fps",get:function(){return this._settings.fps}},{key:"maxFiniteDuration",get:function(){return this.iterations>0?this.iterations*this.duration:this.duration}},{key:"_apply",value:function(t){for(var n=arguments.length>1&&void 0!==arguments[1]?arguments[1]:{},e=this._animations,r=e.length,i=0,u=0;u<r;u++)n[u]?i++:(n[u]=e[u](t,1),n[u]&&i++);return i}},{key:"_rollback",value:function(t){var n=this,e=1/0,r=null;this.rollbackStartOffset=t,this._rollingBack=!0,this._running=!0;this._id=window.requestAnimationFrame((function i(u){if(n._rollingBack){null==r&&(r=u);var o=Math.round(t-(u-r)*n.speed);if(o>n.duration&&e!==1/0){var a=!!n.alternate&&o/n.duration%2>1,l=o%n.duration;o=(l+=a?n.duration:0)||n.duration}var s=(n.fps?1e3/n.fps:0)*n.speed,f=Math.max(0,o);f<=e-s&&(n.offset=f,e=f,n._apply(f));var c=n.iterations>0&&-1===n.fill&&o>=n.maxFiniteDuration;(o<=0||n.offset<o||c)&&n.stop(),n._id=window.requestAnimationFrame(i)}}))}},{key:"_start",value:function(){var t=this,n=arguments.length>0&&void 0!==arguments[0]?arguments[0]:0,e=-1/0,r=null,i={};this._running=!0;var u=function u(o){null==r&&(r=o);var a=Math.round((o-r)*t.speed+n),l=(t.fps?1e3/t.fps:0)*t.speed;if(a>=e+l&&!t._rollingBack&&(t.offset=a,e=a,t._apply(a,i)===t._animations.length))return void t.pause(!0);t._id=window.requestAnimationFrame(u)};this._id=window.requestAnimationFrame(u)}},{key:"_pause",value:function(){this._id&&window.cancelAnimationFrame(this._id),this._running=!1}},{key:"play",value:function(){if(!this._running)return this._rollingBack?this._rollback(this.offset):this._start(this.offset)}},{key:"stop",value:function(){this._pause(),this.offset=0,this.rollbackStartOffset=0,this._rollingBack=!1,this._apply(0)}},{key:"reachedToEnd",value:function(){return this.iterations>0&&this.offset>=this.iterations*this.duration}},{key:"restart",value:function(){var t=arguments.length>0&&void 0!==arguments[0]&&arguments[0];this.stop(t),this.play(t)}},{key:"pause",value:function(){this._pause()}},{key:"reverse",value:function(){this.direction=-this.direction}}],[{key:"build",value:function(t,n){delete t.animationSettings,t.options=at(t.options,t.root,"5c7f360c"),t.animations.map((function(n){n.settings=at(n.s,t.root,"5c7f360c"),delete n.s,t.animationSettings||(t.animationSettings=n.settings)}));var e=t.version;if(!(t=rt(t,n)))return null;var r=t.options||{},i=new this(t.animations,t.animationSettings,e);return{el:t.svg,options:r,player:i}}},{key:"push",value:function(t){return this.build(t)}},{key:"init",value:function(){var t=this,n=window.__SVGATOR_PLAYER__&&window.__SVGATOR_PLAYER__["5c7f360c"];Array.isArray(n)&&n.splice(0).forEach((function(n){return t.build(n)}))}}]),t}();function ft(t){return d(t)+""}function ct(t){var n=arguments.length>1&&void 0!==arguments[1]?arguments[1]:" ";return t&&t.length?t.map(ft).join(n):""}function ht(t){if(!t)return"transparent";if(null==t.a||t.a>=1){var n=function(t){return 1===(t=parseInt(t).toString(16)).length?"0"+t:t},e=function(t){return t.charAt(0)===t.charAt(1)},r=n(t.r),i=n(t.g),u=n(t.b);return e(r)&&e(i)&&e(u)&&(r=r.charAt(0),i=i.charAt(0),u=u.charAt(0)),"#"+r+i+u}return"rgba("+t.r+","+t.g+","+t.b+","+t.a+")"}function vt(t){return t?"url(#"+t+")":"none"}!function(){for(var t=0,n=["ms","moz","webkit","o"],e=0;e<n.length&&!window.requestAnimationFrame;++e)window.requestAnimationFrame=window[n[e]+"RequestAnimationFrame"],window.cancelAnimationFrame=window[n[e]+"CancelAnimationFrame"]||window[n[e]+"CancelRequestAnimationFrame"];window.requestAnimationFrame||(window.requestAnimationFrame=function(n){var e=Date.now(),r=Math.max(0,16-(e-t)),i=window.setTimeout((function(){n(e+r)}),r);return t=e+r,i},window.cancelAnimationFrame=window.clearTimeout)}();var yt={f:null,i:function(t,n,e){return 0===t?n:1===t?e:{x:q(t,n.x,e.x),y:q(t,n.y,e.y)}},u:function(t,n){return function(e){var r=n(e);t.setAttribute("rx",ft(r.x)),t.setAttribute("ry",ft(r.y))}}},gt={f:null,i:function(t,n,e){return 0===t?n:1===t?e:{width:q(t,n.width,e.width),height:q(t,n.height,e.height)}},u:function(t,n){return function(e){var r=n(e);t.setAttribute("width",ft(r.width)),t.setAttribute("height",ft(r.height))}}};Object.freeze({M:2,L:2,Z:0,H:1,V:1,C:6,Q:4,T:2,S:4,A:7});var dt={},pt=null;function mt(t){var n=function(){if(pt)return pt;if("object"!==("undefined"==typeof document?"undefined":e(document))||!document.createElementNS)return{};var t=document.createElementNS("http://www.w3.org/2000/svg","svg");return t&&t.style?(t.style.position="absolute",t.style.opacity="0.01",t.style.zIndex="-9999",t.style.left="-9999px",t.style.width="1px",t.style.height="1px",pt={svg:t}):{}}().svg;if(!n)return function(t){return null};var r=document.createElementNS(n.namespaceURI,"path");r.setAttributeNS(null,"d",t),r.setAttributeNS(null,"fill","none"),r.setAttributeNS(null,"stroke","none"),n.appendChild(r);var i=r.getTotalLength();return function(t){var n=r.getPointAtLength(i*t);return{x:n.x,y:n.y}}}function bt(t){return dt[t]?dt[t]:dt[t]=mt(t)}function wt(t,n,e,r){if(!t||!r)return!1;var i=["M",t.x,t.y];if(n&&e&&(i.push("C"),i.push(n.x),i.push(n.y),i.push(e.x),i.push(e.y)),n?!e:e){var u=n||e;i.push("Q"),i.push(u.x),i.push(u.y)}return n||e||i.push("L"),i.push(r.x),i.push(r.y),i.join(" ")}function At(t,n,e,r){var i=arguments.length>4&&void 0!==arguments[4]?arguments[4]:1,u=wt(t,n,e,r),o=bt(u);try{return o(i)}catch(t){return null}}function _t(t,n,e){return t+(n-t)*e}function xt(t,n,e){var r=arguments.length>3&&void 0!==arguments[3]&&arguments[3],i={x:_t(t.x,n.x,e),y:_t(t.y,n.y,e)};return r&&(i.a=kt(t,n)),i}function kt(t,n){return Math.atan2(n.y-t.y,n.x-t.x)}function St(t,n,e,r){var i=1-r;return i*i*t+2*i*r*n+r*r*e}function Ot(t,n,e,r){return 2*(1-r)*(n-t)+2*r*(e-n)}function jt(t,n,e,r){var i=arguments.length>4&&void 0!==arguments[4]&&arguments[4],u=At(t,n,null,e,r);return u||(u={x:St(t.x,n.x,e.x,r),y:St(t.y,n.y,e.y,r)}),i&&(u.a=Et(t,n,e,r)),u}function Et(t,n,e,r){return Math.atan2(Ot(t.y,n.y,e.y,r),Ot(t.x,n.x,e.x,r))}function Mt(t,n,e,r,i){var u=i*i;return i*u*(r-t+3*(n-e))+3*u*(t+e-2*n)+3*i*(n-t)+t}function Pt(t,n,e,r,i){var u=1-i;return 3*(u*u*(n-t)+2*u*i*(e-n)+i*i*(r-e))}function It(t,n,e,r,i){var u=arguments.length>5&&void 0!==arguments[5]&&arguments[5],o=At(t,n,e,r,i);return o||(o={x:Mt(t.x,n.x,e.x,r.x,i),y:Mt(t.y,n.y,e.y,r.y,i)}),u&&(o.a=Rt(t,n,e,r,i)),o}function Rt(t,n,e,r,i){return Math.atan2(Pt(t.y,n.y,e.y,r.y,i),Pt(t.x,n.x,e.x,r.x,i))}function Ft(t,n,e){var r=arguments.length>3&&void 0!==arguments[3]&&arguments[3];if(Tt(n)){if(Bt(e))return jt(n,e.start,e,t,r)}else if(Tt(e)){if(qt(n))return jt(n,n.end,e,t,r)}else{if(qt(n))return Bt(e)?It(n,n.end,e.start,e,t,r):jt(n,n.end,e,t,r);if(Bt(e))return jt(n,e.start,e,t,r)}return xt(n,e,t,r)}function Nt(t,n,e){var r=Ft(t,n,e,!0);return r.a=function(t){return arguments.length>1&&void 0!==arguments[1]&&arguments[1]?t+Math.PI:t}(r.a)/m,r}function Tt(t){return!t.type||"corner"===t.type}function Bt(t){return null!=t.start&&!Tt(t)}function qt(t){return null!=t.end&&!Tt(t)}var Dt=new N;var Lt={f:ft,i:B},Ct={f:ft,i:D};function Vt(t,n,e){return t.map((function(t){return function(t,n,e){var r=t.v;if(!r||"g"!==r.t||r.s||!r.v||!r.r)return t;var i=e.getElementById(r.r),u=i&&i.querySelectorAll("stop")||[];return r.s=r.v.map((function(t,n){var e=u[n]&&u[n].getAttribute("offset");return{c:t,o:e=d(parseInt(e)/100)}})),delete r.v,t}(t,0,e)}))}var Gt={gt:"gradientTransform",c:{x:"cx",y:"cy"},rd:"r",f:{x:"x1",y:"y1"},to:{x:"x2",y:"y2"}};function zt(t,n,r,i,u,o,a,l){return Vt(t,0,l),n=function(t,n,e){for(var r,i,u,o=t.length-1,a={},l=0;l<=o;l++)(r=t[l]).e&&(r.e=n(r.e)),r.v&&"g"===(i=r.v).t&&i.r&&(u=e.getElementById(i.r))&&(a[i.r]={e:u,s:u.querySelectorAll("stop")});return a}(t,i,l),function(i){var u=r(i,t,Yt);if(!u)return"none";if("c"===u.t)return ht(u.v);if("g"===u.t){if(!n[u.r])return vt(u.r);var o=n[u.r];return function(t,n){for(var e=t.s,r=e.length;r<n.length;r++){var i=e[e.length-1].cloneNode();i.id=Qt(i.id),t.e.appendChild(i),e=t.s=t.e.querySelectorAll("stop")}for(var u=0,o=e.length,a=n.length-1;u<o;u++)e[u].setAttribute("stop-color",ht(n[Math.min(u,a)].c)),e[u].setAttribute("offset",n[Math.min(u,a)].o)}(o,u.s),Object.keys(Gt).forEach((function(t){if(void 0!==u[t])if("object"!==e(Gt[t])){var n,r="gt"===t?(n=u[t],Array.isArray(n)?"matrix("+n.join(" ")+")":""):u[t],i=Gt[t];o.e.setAttribute(i,r)}else Object.keys(Gt[t]).forEach((function(n){if(void 0!==u[t][n]){var e=u[t][n],r=Gt[t][n];o.e.setAttribute(r,e)}}))})),vt(u.r)}return"none"}}function Yt(t,e,r){if(0===t)return e;if(1===t)return r;if(e&&r){var i=e.t;if(i===r.t)switch(e.t){case"c":return{t:i,v:V(t,e.v,r.v)};case"g":if(e.r===r.r){var u={t:i,s:$t(t,e.s,r.s),r:e.r};return e.gt&&r.gt&&(u.gt=function(t,n,e){var r=n.length;if(r!==e.length)return T(t,n,e);for(var i=new Array(r),u=0;u<r;u++)i[u]=B(t,n[u],e[u]);return i}(t,e.gt,r.gt)),e.c?(u.c=L(t,e.c,r.c),u.rd=q(t,e.rd,r.rd)):e.f&&(u.f=L(t,e.f,r.f),u.to=L(t,e.to,r.to)),u}}if("c"===e.t&&"g"===r.t||"c"===r.t&&"g"===e.t){var o="c"===e.t?e:r,a="g"===e.t?n({},e):n({},r),l=a.s.map((function(t){return{c:o.v,o:t.o}}));return a.s="c"===e.t?$t(t,l,a.s):$t(t,a.s,l),a}}return T(t,e,r)}function $t(t,n,e){if(n.length===e.length)return n.map((function(n,r){return Ut(t,n,e[r])}));for(var r=Math.max(n.length,e.length),i=[],u=0;u<r;u++){var o=Ut(t,n[Math.min(u,n.length-1)],e[Math.min(u,e.length-1)]);i.push(o)}return i}function Ut(t,n,e){return{o:D(t,n.o,e.o||0),c:V(t,n.c,e.c||{})}}function Qt(t){return t.replace(/-fill-([0-9]+)$/,(function(t,n){return"-fill-"+(+n+1)}))}var Ht={fill:zt,"fill-opacity":Ct,stroke:zt,"stroke-opacity":Ct,"stroke-width":Lt,"stroke-dashoffset":{f:ft,i:B},"stroke-dasharray":{f:function(t){var n=arguments.length>1&&void 0!==arguments[1]?arguments[1]:" ";return t&&t.length>0&&(t=t.map((function(t){return d(t,4)}))),ct(t,n)},i:function(t,n,e){var r,i,u,o=n.length,a=e.length;if(o!==a)if(0===o)n=G(o=a,0);else if(0===a)a=o,e=G(o,0);else{var l=(u=(r=o)*(i=a)/function(t,n){for(var e;n;)e=n,n=t%n,t=e;return t||1}(r,i))<0?-u:u;n=z(n,Math.floor(l/o)),e=z(e,Math.floor(l/a)),o=a=l}for(var s=[],f=0;f<o;f++)s.push(d(q(t,n[f],e[f])));return s}},opacity:Ct,transform:function(t,n,r,i){if(!(t=function(t,n){if(!t||"object"!==e(t))return null;var r=!1;for(var i in t)t.hasOwnProperty(i)&&(t[i]&&t[i].length?(t[i].forEach((function(t){t.e&&(t.e=n(t.e))})),r=!0):delete t[i]);return r?t:null}(t,i)))return null;var u=function(e,i,u){var o=arguments.length>3&&void 0!==arguments[3]?arguments[3]:null;return t[e]?r(i,t[e],u):n&&n[e]?n[e]:o};return n&&n.a&&t.o?function(n){var e=r(n,t.o,Nt);return Dt.recomposeSelf(e,u("r",n,B,0)+e.a,u("k",n,L),u("s",n,L),u("t",n,L)).toString()}:function(t){return Dt.recomposeSelf(u("o",t,Ft,null),u("r",t,B,0),u("k",t,L),u("s",t,L),u("t",t,L)).toString()}},r:Lt,"#size":gt,"#radius":yt,_:function(t,n){if(Array.isArray(t))for(var e=0;e<t.length;e++)this[t[e]]=n;else this[t]=n}},Jt=function(t){!function(t,n){if("function"!=typeof n&&null!==n)throw new TypeError("Super expression must either be null or a function");t.prototype=Object.create(n&&n.prototype,{constructor:{value:t,writable:!0,configurable:!0}}),n&&l(t,n)}(o,t);var n,e,i=(n=o,e=s(),function(){var t,r=a(n);if(e){var i=a(this).constructor;t=Reflect.construct(r,arguments,i)}else t=r.apply(this,arguments);return c(this,t)});function o(){return r(this,o),i.apply(this,arguments)}return u(o,null,[{key:"build",value:function(t){var n=h(a(o),"build",this).call(this,t,Ht);if(!n)return null;n.el,n.options,function(t,n,e){t.play()}(n.player)}}]),o}(st);return Jt.init(),Jt}));
(function(s,i,o,w,d,a,b){w[o]=w[o]||{};w[o][s]=w[o][s]||[];w[o][s].push(i);})('5c7f360c',{"root":"eas3t6miw981","version":"2022-05-04","animations":[{"elements":{"eas3t6miw9823":{"transform":{"data":{"o":{"x":326.06884,"y":93.487976,"type":"corner"},"t":{"x":-318.46051,"y":-90.432701}},"keys":{"r":[{"t":0,"v":0},{"t":1000,"v":90},{"t":2000,"v":180},{"t":3000,"v":360}]}}},"eas3t6miw9829":{"transform":{"data":{"t":{"x":-601.241455,"y":-363.781936}},"keys":{"o":[{"t":0,"v":{"x":801.810139,"y":363.95733,"type":"corner"},"e":[0.42,0,1,1]},{"t":1000,"v":{"x":621.928,"y":363.95733,"type":"corner"}},{"t":2100,"v":{"x":623.895432,"y":363.95733,"type":"corner"}}]}}},"eas3t6miw9830":{"transform":{"data":{"t":{"x":-433.778015,"y":-284.574951}},"keys":{"o":[{"t":1100,"v":{"x":536.098471,"y":397.961688,"type":"cusp","end":{"x":479.318594,"y":393.104186}}},{"t":2100,"v":{"x":441.608534,"y":257.831546,"type":"cusp","start":{"x":410.384465,"y":326.219368}}}],"r":[{"t":1100,"v":0.403655},{"t":2100,"v":360.403655}],"s":[{"t":1100,"v":{"x":0.16,"y":0.17}},{"t":2100,"v":{"x":1,"y":1.06}}]}}},"eas3t6miw9833":{"transform":{"keys":{"o":[{"t":2100,"v":{"x":-240.928772,"y":-269.45166,"type":"corner"}},{"t":3000,"v":{"x":-232.67755,"y":-204.031459,"type":"corner"}}],"s":[{"t":2100,"v":{"x":0.1,"y":0.1}},{"t":3000,"v":{"x":1,"y":1}}]}}},"eas3t6miw9835":{"transform":{"keys":{"o":[{"t":2100,"v":{"x":-96.02877,"y":-201.500711,"type":"corner"}},{"t":3000,"v":{"x":-232.521915,"y":-203.997356,"type":"corner"}}],"s":[{"t":2100,"v":{"x":0.1,"y":0.1}},{"t":3000,"v":{"x":1,"y":1}}]}}}},"s":"MKDA1ZDg3MmVUNzA4MTCdlNmQ4MDc1N2I3YTJVlNDYzZjNmM2MzYzM4TMmU3MDc1N2U3MTZmOXDA3NTdiN2EyZTQ2UTYNkMzgyZTc1ODA3MTdBlNmQ4MDc1N2I3YVQ3NZjJlNDZOM2QzODJlNMzI3NTc4NzgyZTQ2M2LRYMzgyZTZkTTc4ODAC3MTdlN2E2ZDgwNzEyJZTQ2NzI2ZEY3ODdmNMzEzOEMyZTdmRjdjNzFE3MVE3MDJlNDZTM2RVIMzgyZTcyN2M3ZjJlFNDYzZDNjM2M4OQ|"}],"options":"MCDAxMFA4ODJmQzgwSTJgxNmU3ZjgxMmY0NzJDmNzk3YzZlNzEyZjhhA"},'__SVGATOR_PLAYER__',window,document)
]]></script></svg>